<?xml version="1.0" standalone="no"?><!DOCTYPE svg PUBLIC "-//W3C//DTD SVG 1.1//EN" "http://www.w3.org/Graphics/SVG/1.1/DTD/svg11.dtd"><svg t="1765115940024" class="icon" viewBox="0 0 1024 1024" version="1.1" xmlns="http://www.w3.org/2000/svg" p-id="6198" width="16" height="16" xmlns:xlink="http://www.w3.org/1999/xlink"><path d="M384 970.666667c-231.68 0-330.666667-98.986667-330.666667-330.666667V384c0-231.68 98.986667-330.666667 330.666667-330.666667h256c231.68 0 330.666667 98.986667 330.666667 330.666667v256c0 231.68-98.986667 330.666667-330.666667 330.666667H384zM117.333333 384v256c0 196.693333 69.973333 266.666667 266.666667 266.666667h256c196.693333 0 266.666667-69.973333 266.666667-266.666667V384c0-196.693333-69.973333-266.666667-266.666667-266.666667H384C187.306667 117.333333 117.333333 187.306667 117.333333 384z" fill="#D81E06" p-id="6199"></path><path d="M293.12 643.413333a31.957333 31.957333 0 0 1-5.973333-44.8l101.546666-131.84c12.373333-15.786667 29.866667-26.026667 49.92-28.586666 19.626667-2.56 39.68 2.986667 55.466667 15.36l78.08 61.44c2.986667 2.56 5.973333 2.56 8.106667 2.133333 1.706667 0 4.693333-0.853333 7.253333-4.266667l98.56-127.146666a31.573333 31.573333 0 0 1 44.8-5.546667c14.08 10.666667 16.64 30.72 5.546667 44.8l-98.56 127.146667c-12.373333 15.786667-29.866667 26.026667-49.92 28.16-20.053333 2.56-39.68-2.986667-55.466667-15.36l-78.08-61.44a9.386667 9.386667 0 0 0-8.106667-2.133334c-1.706667 0-4.693333 0.853333-7.253333 4.266667l-101.546667 131.84c-5.546667 8.533333-14.933333 12.8-24.746666 12.8-6.826667 0-13.653333-2.133333-19.626667-6.826667z" fill="#D81E06" p-id="6200"></path></svg>